<svg id="British_Council_logo" data-name="British Council logo" xmlns="http://www.w3.org/2000/svg" viewBox="0 0 108.35 31.31"><title>BritishCouncil_Negative</title><path d="M52.7,29.31v-13h4.76a5.12,5.12,0,0,1,2.25.41,3.24,3.24,0,0,1,1.91,2.93,2.93,2.93,0,0,1-1.56,2.72v0a2.85,2.85,0,0,1,2.4,3A3.72,3.72,0,0,1,59.59,29a8.3,8.3,0,0,1-2.48.28H52.7m5.83-10.75a2.79,2.79,0,0,0-1.22-.22H54.92v3.39h2.24a2.87,2.87,0,0,0,1.46-.3,1.67,1.67,0,0,0-.1-2.87m.69,5.37a3.57,3.57,0,0,0-1.48-.21H54.92V27.3h2.66A3.77,3.77,0,0,0,59.23,27a1.67,1.67,0,0,0,.95-1.61A1.57,1.57,0,0,0,59.21,23.94Z" transform="translate(-14.84 -14.85)" style="fill:#fff"/><rect x="60.6" y="1.48" width="2.22" height="12.97" style="fill:#fff"/><rect x="76.76" y="1.48" width="2.22" height="12.97" style="fill:#fff"/><path d="M101,16.22a8.86,8.86,0,0,1,3.6.73l0,2.13a8,8,0,0,0-3.62-.91c-1.22,0-2.26.38-2.26,1.4,0,2.66,6.68,1.59,6.68,6,0,2.42-2,4-5,4a8.18,8.18,0,0,1-4.39-1.16l.92-1.81a6.83,6.83,0,0,0,3.54,1c1.34,0,2.58-.51,2.58-1.69,0-2.78-6.61-1.56-6.61-6C96.38,17.52,98.27,16.22,101,16.22Z" transform="translate(-14.84 -14.85)" style="fill:#fff"/><polygon points="101.05 14.46 101.05 8.87 94.75 8.87 94.75 14.46 92.53 14.46 92.53 1.48 94.75 1.48 94.75 6.8 101.05 6.8 101.05 1.48 103.28 1.48 103.28 14.46 101.05 14.46" style="fill:#fff"/><path d="M57.61,31.59a8.38,8.38,0,0,1,3.6.77l-.67,1.89a6,6,0,0,0-2.7-.65c-2.46,0-4,2.09-4,4.62s1.44,4.65,4,4.65a5.9,5.9,0,0,0,2.7-.65l.67,1.89a8.41,8.41,0,0,1-3.6.76c-3.88,0-6.1-2.71-6.1-6.61C51.51,34.63,53.73,31.59,57.61,31.59Z" transform="translate(-14.84 -14.85)" style="fill:#fff"/><path d="M106.29,31.59a8.36,8.36,0,0,1,3.6.77l-.67,1.89a6,6,0,0,0-2.7-.65c-2.46,0-4,2.09-4,4.62s1.44,4.65,4,4.65a5.9,5.9,0,0,0,2.7-.65l.67,1.89a8.39,8.39,0,0,1-3.6.76c-3.88,0-6.11-2.71-6.11-6.61C100.18,34.63,102.41,31.59,106.29,31.59Z" transform="translate(-14.84 -14.85)" style="fill:#fff"/><path d="M73.93,38.19c0,3.9-2.48,6.69-6.14,6.69s-6.14-2.7-6.14-6.59,2.48-6.69,6.14-6.69,6.14,2.7,6.14,6.59m-2.34,0c0-2.83-1.61-4.64-3.8-4.64S64,35.39,64,38.25s1.62,4.65,3.8,4.65S71.58,41.08,71.58,38.23Z" transform="translate(-14.84 -14.85)" style="fill:#fff"/><path d="M75.43,39.8V31.71h2.23v8.17c0,2.16,1.16,3,3,3s3-.81,3-3V31.71h2.22V39.8c0,3.53-2,5.08-5.28,5.08S75.43,43.33,75.43,39.8Z" transform="translate(-14.84 -14.85)" style="fill:#fff"/><path d="M90.09,35.24h0c0,.43.06,1.12.06,1.73v7.72H87.88v-13h2.4l6,8.84h0c0-.43-.06-1.12-.06-1.73v-7.1h2.22v13h-2Z" transform="translate(-14.84 -14.85)" style="fill:#fff"/><rect x="96.8" y="16.86" width="2.22" height="12.97" style="fill:#fff"/><polygon points="101.05 29.83 101.05 16.86 103.28 16.86 103.28 27.82 108.35 27.82 108.35 29.83 101.05 29.83" style="fill:#fff"/><polygon points="75.06 1.49 64.53 1.49 64.53 3.51 68.68 3.51 68.68 14.46 70.9 14.46 70.9 3.51 75.06 3.51 75.06 1.49" style="fill:#fff"/><path d="M71.44,29.31c-1.89-3.92-2.38-5-3.17-5H66.21v5H64v-13h4.39c3.35,0,4.62,1.77,4.62,3.74a3.31,3.31,0,0,1-2.4,3.33v0c.59.33,1.22,1.56,3.39,5.89Zm-2.93-11h-2.3v3.94h2.2c1.6,0,2.34-.83,2.34-2S70.06,18.35,68.51,18.35Z" transform="translate(-14.84 -14.85)" style="fill:#fff"/><circle cx="23.89" cy="7.42" r="7.42" style="fill:#fff"/><circle cx="7.42" cy="7.42" r="7.42" style="fill:#fff"/><circle cx="23.89" cy="23.89" r="7.42" style="fill:#fff"/><circle cx="7.42" cy="23.89" r="7.42" style="fill:#fff"/></svg>